HIERARCHY
ROOT Hips
{
	OFFSET 0.000000 0.000000 0.000000
	CHANNELS 6 Xposition Yposition Zposition Zrotation Yrotation Xrotation 
	JOINT LHipJoint
	{
		OFFSET 0.000000 0.000000 0.000000
		CHANNELS 3 Zrotation Yrotation Xrotation
		JOINT LeftUpLeg
		{
			OFFSET 1.363060 -1.794630 0.839290
			CHANNELS 3 Zrotation Yrotation Xrotation
			JOINT LeftLeg
			{
				OFFSET 2.448110 -6.726130 0.000000
				CHANNELS 3 Zrotation Yrotation Xrotation
				JOINT LeftFoot
				{
					OFFSET 2.562200 -7.039590 0.000000
					CHANNELS 3 Zrotation Yrotation Xrotation
					JOINT LeftToeBase
					{
						OFFSET 0.157640 -0.433110 2.322550
						CHANNELS 3 Zrotation Yrotation Xrotation
						End Site
						{
							OFFSET 0.000000 0.000000 0.000000
						}
					}
				}
			}
		}
	}
	JOINT RHipJoint
	{
		OFFSET 0.000000 0.000000 0.000000
		CHANNELS 3 Zrotation Yrotation Xrotation
		JOINT RightUpLeg
		{
			OFFSET -1.305520 -1.794630 0.839290
			CHANNELS 3 Zrotation Yrotation Xrotation
			JOINT RightLeg
			{
				OFFSET -2.542530 -6.985550 0.000000
				CHANNELS 3 Zrotation Yrotation Xrotation
				JOINT RightFoot
				{
					OFFSET -2.568260 -7.056230 0.000000
					CHANNELS 3 Zrotation Yrotation Xrotation
					JOINT RightToeBase
					{
						OFFSET -0.164730 -0.452590 2.363150
						CHANNELS 3 Zrotation Yrotation Xrotation
						End Site
						{
							OFFSET 0.000000 0.000000 0.000000
						}
					}
				}
			}
		}
	}
}
MOTION
Frames: 13
Frame Time: 0.008333
-4.716622 16.793941 -1.786408 52.491166 77.996767 71.408442 -9.903362 5.045207 0.554541 -12.519815 11.922200 -9.054800 -2.562594 0.726799 21.145116 0.109736 0.247707 5.164350 0.196300 -0.000000 -74.204000 9.533879 -0.640153 3.994562 14.923785 -1.873446 -46.206493 2.608244 0.262590 15.778221 -3.155802 -10.626355 -8.999144 178.905600 -0.000000 -5.957700
-4.548947 16.735900 -1.727779 50.712302 77.428077 69.369053 -9.944817 5.187484 0.557160 -12.349332 12.479746 -8.946032 -2.485888 0.842470 22.487300 0.067833 -0.416307 5.746556 0.060400 0.000000 -76.237500 9.550636 -0.628473 4.025768 14.482688 -1.299519 -47.194114 2.423498 -0.235240 20.011109 -3.227519 -10.245041 -11.099519 179.443300 -0.000000 -10.788200
-4.385476 16.686843 -1.669440 48.792140 76.895245 67.149033 -10.017527 5.310621 0.537519 -12.042414 13.073724 -8.906009 -2.379686 0.970428 23.973416 0.027475 -1.212831 6.560167 -0.120700 0.000000 -77.988799 9.567744 -0.614602 4.024986 14.094627 -0.755712 -47.913061 2.243090 -0.686059 23.973619 -3.254217 -9.836465 -12.987607 179.919400 -0.000000 -14.435200
-4.226505 16.648056 -1.611112 46.781522 76.421365 64.813812 -10.124126 5.407227 0.500009 -11.583137 13.659809 -8.953472 -2.241917 1.105830 25.603877 -0.004241 -2.123126 7.588934 -0.357701 -0.000000 -79.270500 9.572547 -0.612042 3.996681 13.827316 -0.262611 -48.305017 2.087360 -1.060605 27.439306 -3.250267 -9.436193 -14.650662 -179.674500 0.000000 -17.034500
-4.072160 16.620110 -1.552350 44.741706 76.021119 62.442068 -10.262146 5.471840 0.453509 -10.978262 14.183925 -9.106090 -2.074313 1.242525 27.370306 -0.019757 -3.104897 8.791695 -0.655100 -0.000000 -79.903600 9.554930 -0.630979 3.944989 13.723872 0.161402 -48.359020 1.970217 -1.348491 30.280962 -3.232580 -9.073774 -16.102415 -179.334400 -0.000001 -18.731800
-3.922482 16.602805 -1.492424 42.758020 75.698638 60.132750 -10.422004 5.502015 0.408982 -10.260605 14.587368 -9.369034 -1.882617 1.374540 29.251470 -0.013199 -4.090430 10.105495 -1.005300 0.000000 -79.739000 9.512179 -0.673782 3.871161 13.792336 0.491318 -48.097285 1.896792 -1.552639 32.459164 -3.214828 -8.769133 -17.363807 -179.050600 0.000000 -19.655200
-3.777474 16.595371 -1.430473 40.925632 75.452382 57.988915 -10.590731 5.497965 0.376050 -9.476330 14.820870 -9.738611 -1.675232 1.497633 31.220793 0.017534 -4.997016 11.449748 -1.385000 -0.000000 -78.678500 9.447076 -0.736809 3.775985 14.012939 0.705651 -47.555595 1.865046 -1.681099 33.986407 -3.206123 -8.536435 -18.449397 -178.812800 0.000001 -19.925700
-3.637075 16.596660 -1.365730 39.338425 75.277111 56.107849 -10.754390 5.462377 0.361790 -8.676973 14.850311 -10.205208 -1.461309 1.609810 33.248654 0.070463 -5.733704 12.736804 -1.755300 -0.000001 -76.716100 9.366627 -0.812804 3.661035 14.345878 0.790670 -46.775331 1.868300 -1.743397 34.908282 -3.210507 -8.381996 -19.366279 -178.612300 -0.000000 -19.666000
-3.501186 16.605356 -1.297563 38.076157 75.165751 54.569204 -10.900854 5.399604 0.369569 -7.910273 14.661754 -10.756776 -1.248790 1.711220 35.306625 0.140681 -6.212873 13.883063 -2.066100 0.000000 -73.913901 9.279915 -0.893442 3.529264 14.740995 0.744087 -45.797992 1.897674 -1.748904 35.289039 -3.227633 -8.303581 -20.117047 -178.443300 0.000000 -19.023900
-3.369551 16.620321 -1.225947 37.159569 75.114623 53.392751 -11.025394 5.313304 0.397466 -7.200056 14.268405 -11.382414 -1.042804 1.803327 37.366905 0.223070 -6.365715 14.827405 -2.268800 0.000000 -70.518800 9.191713 -0.973096 3.385877 15.158484 0.588670 -44.654515 1.944102 -1.705281 35.194895 -3.256348 -8.300834 -20.702242 -178.301701 0.000000 -18.181400
-3.241914 16.640350 -1.150587 36.636012 75.105485 52.626415 -11.119483 5.208812 0.444463 -6.587649 13.682108 -12.071128 -0.846633 1.887532 39.402479 0.313385 -6.133031 15.523211 -2.318700 0.000000 -66.701800 9.114075 -1.043633 3.237952 15.539884 0.345457 -43.394620 1.997426 -1.622643 34.718390 -3.290915 -8.355053 -21.130473 -178.185900 0.000000 -17.323700
-3.117848 16.664719 -1.072121 36.448005 75.127689 52.216095 -11.185940 5.087975 0.504290 -6.073669 12.941687 -12.815218 -0.660938 1.964820 41.385791 0.410869 -5.493840 15.961276 -2.194500 -0.000000 -62.874300 9.048166 -1.102943 3.095256 15.859721 0.070311 -42.045598 2.049224 -1.508057 33.932920 -3.329744 -8.464794 -21.408248 -178.094000 0.000000 -16.623500
-2.997029 16.692772 -0.990955 36.548369 75.157921 52.119967 -11.224423 4.953308 0.572321 -5.670934 12.081296 -13.608146 -0.486465 2.035358 43.293729 0.516241 -4.451077 16.136534 -1.891800 0.000000 -59.163200 8.999814 -1.147620 2.967404 16.085552 -0.189445 -40.649527 2.091496 -1.371109 32.929558 -3.368695 -8.615612 -21.549079 -178.025600 -0.000000 -16.185700
